<svg width="22" height="23" viewBox="0 0 22 23" fill="none" xmlns="http://www.w3.org/2000/svg">
<path d="M21.5004 1.01655C21.3462 0.862045 21.163 0.739466 20.9614 0.65583C20.7598 0.572194 20.5437 0.529144 20.3254 0.529144C20.1071 0.529144 19.891 0.572194 19.6893 0.65583C19.4877 0.739466 19.3046 0.862045 19.1504 1.01655L11.0004 9.14988L2.85037 0.999884C2.69607 0.845581 2.51289 0.723181 2.31128 0.639673C2.10967 0.556164 1.89359 0.513184 1.67537 0.513184C1.45716 0.513184 1.24107 0.556164 1.03947 0.639673C0.83786 0.723181 0.654676 0.845581 0.500372 0.999884C0.346069 1.15419 0.223669 1.33737 0.140161 1.53898C0.0566526 1.74059 0.0136719 1.95667 0.0136719 2.17488C0.0136719 2.3931 0.0566526 2.60918 0.140161 2.81079C0.223669 3.0124 0.346069 3.19558 0.500372 3.34988L8.65037 11.4999L0.500372 19.6499C0.346069 19.8042 0.223669 19.9874 0.140161 20.189C0.0566526 20.3906 0.0136719 20.6067 0.0136719 20.8249C0.0136719 21.0431 0.0566526 21.2592 0.140161 21.4608C0.223669 21.6624 0.346069 21.8456 0.500372 21.9999C0.654676 22.1542 0.83786 22.2766 1.03947 22.3601C1.24107 22.4436 1.45716 22.4866 1.67537 22.4866C1.89359 22.4866 2.10967 22.4436 2.31128 22.3601C2.51289 22.2766 2.69607 22.1542 2.85037 21.9999L11.0004 13.8499L19.1504 21.9999C19.3047 22.1542 19.4879 22.2766 19.6895 22.3601C19.8911 22.4436 20.1072 22.4866 20.3254 22.4866C20.5436 22.4866 20.7597 22.4436 20.9613 22.3601C21.1629 22.2766 21.3461 22.1542 21.5004 21.9999C21.6547 21.8456 21.7771 21.6624 21.8606 21.4608C21.9441 21.2592 21.9871 21.0431 21.9871 20.8249C21.9871 20.6067 21.9441 20.3906 21.8606 20.189C21.7771 19.9874 21.6547 19.8042 21.5004 19.6499L13.3504 11.4999L21.5004 3.34988C22.1337 2.71655 22.1337 1.64988 21.5004 1.01655Z" fill="white"/>
</svg>
