<svg width="184" height="37" viewBox="0 0 184 37" fill="none" xmlns="http://www.w3.org/2000/svg">
<g clip-path="url(#clip0_679_24924)">
<path d="M77.5263 12.7534C75.1256 12.7534 73.3203 13.6714 72.4049 15.195H72.232V13.1996H67.834V34.1544H72.232V27.518H72.4241C73.3075 29.0416 75.1128 29.966 77.5455 29.966C82.0267 29.966 85.6374 26.141 85.6374 21.347C85.6374 16.5529 82.0396 12.7534 77.5263 12.7534ZM76.6364 25.8222C75.7485 25.8298 74.8784 25.5746 74.1364 25.0888C73.3944 24.6031 72.8141 23.9088 72.469 23.0941C72.1239 22.2794 72.0297 21.3809 72.1983 20.5128C72.3668 19.6446 72.7905 18.8459 73.4157 18.218C74.0409 17.5901 74.8392 17.1612 75.7096 16.9859C76.5799 16.8106 77.4829 16.8967 78.3039 17.2333C79.125 17.5699 79.8272 18.1419 80.3213 18.8765C80.8154 19.6112 81.0793 20.4755 81.0793 21.3597C81.0887 21.9451 80.9805 22.5264 80.761 23.0696C80.5416 23.6127 80.2153 24.1067 79.8013 24.5225C79.3874 24.9382 78.8942 25.2674 78.3507 25.4906C77.8072 25.7138 77.2243 25.8266 76.6364 25.8222Z" fill="white"/>
<path d="M175.851 13.9647C174.755 13.9116 173.663 14.1308 172.673 14.6027C171.682 15.0745 170.826 15.7841 170.179 16.6677H169.981C170.307 13.563 172.004 12.0585 175.647 11.523L182.048 10.5668V6.37834L175.243 7.37922C168.957 8.28448 165.941 11.7334 165.941 17.9491C165.941 22.4116 166.217 23.8651 166.991 25.5609C168.208 28.2894 171.223 29.966 174.872 29.966C179.782 29.966 183.572 26.3578 183.572 21.6275C183.546 17.0884 180.422 13.9647 175.851 13.9647ZM174.801 25.7967C173.975 25.7767 173.173 25.5141 172.496 25.042C171.818 24.5699 171.296 23.9092 170.994 23.1427C170.692 22.3763 170.624 21.5382 170.799 20.7334C170.973 19.9287 171.382 19.1931 171.975 18.6189C172.567 18.0448 173.317 17.6575 174.129 17.5057C174.942 17.3538 175.781 17.4442 176.543 17.7655C177.304 18.0867 177.953 18.6245 178.408 19.3116C178.864 19.9986 179.106 20.8042 179.103 21.6275C179.108 22.186 178.999 22.7398 178.783 23.2553C178.567 23.7708 178.249 24.2374 177.847 24.627C177.445 25.0166 176.968 25.321 176.444 25.5221C175.921 25.7231 175.362 25.8166 174.801 25.7967Z" fill="white"/>
<path d="M63.2691 8.29085L58.3205 18.6312L51.5474 8.29085H46.2852L56.0735 23.2531L55.8046 23.8205C55.6415 24.2748 55.3287 24.6608 54.9172 24.9154C54.5057 25.1701 54.0197 25.2785 53.5384 25.223H50.075V29.5198H54.0249C57.0466 29.5198 58.2565 28.7293 59.5241 26.1219L68.1729 8.27173L63.2691 8.29085Z" fill="white"/>
<path d="M111.013 13.2251L110.264 23.3487C110.142 24.9361 109.623 25.5162 108.413 25.5162H107.338V29.6409H109.956C112.901 29.6409 114.213 28.2384 114.437 25.3314L115.014 17.4582H120.423V29.5006H124.866V13.2251H111.013Z" fill="white"/>
<path d="M136.314 16.9227C137.131 16.92 137.932 17.1487 138.623 17.5822C139.314 18.0156 139.868 18.6359 140.219 19.3707L144.143 17.8534C143.042 14.7551 139.937 12.7534 136.218 12.7534C135.043 12.6897 133.868 12.8651 132.764 13.2688C131.66 13.6725 130.65 14.2962 129.796 15.1016C128.942 15.907 128.261 16.8774 127.796 17.9533C127.332 19.0293 127.092 20.1884 127.092 21.3597C127.092 22.531 127.332 23.6901 127.796 24.7661C128.261 25.842 128.942 26.8124 129.796 27.6178C130.65 28.4232 131.66 29.0469 132.764 29.4506C133.868 29.8543 135.043 30.0297 136.218 29.966C139.937 29.966 143.042 27.9643 144.143 24.866L140.219 23.3296C139.867 24.0632 139.313 24.6822 138.622 25.1144C137.93 25.5467 137.13 25.7745 136.314 25.7712C135.135 25.7712 134.005 25.3051 133.172 24.4754C132.339 23.6457 131.871 22.5203 131.871 21.347C131.871 20.1736 132.339 19.0482 133.172 18.2185C134.005 17.3888 135.135 16.9227 136.314 16.9227Z" fill="white"/>
<path d="M158.035 13.1996L151.205 23.5464V13.1996H146.807V29.5007H151.672L158.451 19.2241V29.5007H162.85V13.1996H158.035Z" fill="white"/>
<path d="M100.719 15.1759H100.527C99.6435 13.6523 97.8382 12.7534 95.4376 12.7534C90.9243 12.7534 87.3457 16.5784 87.3457 21.3661C87.3457 26.1537 90.9243 29.966 95.4376 29.966C97.8382 29.966 99.6435 29.0416 100.527 27.518H100.719V29.5006H105.117V13.1996H100.719V15.1759ZM96.3274 25.8222C95.4375 25.84 94.5625 25.5934 93.8138 25.1139C93.0652 24.6345 92.4769 23.9439 92.1239 23.1302C91.771 22.3165 91.6693 21.4166 91.832 20.5451C91.9947 19.6737 92.4142 18.8702 93.0372 18.2371C93.6602 17.6041 94.4584 17.1701 95.3301 16.9906C96.2017 16.811 97.1073 16.894 97.9313 17.229C98.7554 17.564 99.4607 18.1358 99.9571 18.8714C100.454 19.6071 100.719 20.4733 100.719 21.3597C100.728 21.9408 100.622 22.5179 100.406 23.0577C100.189 23.5975 99.8675 24.0892 99.459 24.5042C99.0506 24.9193 98.5634 25.2495 98.0259 25.4758C97.4883 25.702 96.911 25.8198 96.3274 25.8222Z" fill="white"/>
<path d="M33.8916 19.3771C33.8916 16.5745 33.1811 13.8173 31.8259 11.3611C30.4706 8.90486 28.5146 6.82917 26.139 5.32645L26.1966 9.33636C28.2951 11.1882 29.7596 13.647 30.3852 16.3688C31.0108 19.0905 30.7662 21.9389 29.6856 24.5154C27.6918 22.5642 26.2082 20.1566 25.3644 17.5028C24.2889 14.1878 24.0456 10.5476 24.0008 6.11059V4.19807C23.0421 3.76544 22.0428 3.42806 21.0176 3.19081V6.10421C21.12 21.4043 23.6807 27.7794 27.5026 32.5033C29.4991 30.9475 31.1133 28.9591 32.2225 26.689C33.3318 24.419 33.907 21.9271 33.9044 19.4026L33.8916 19.3771Z" fill="white"/>
<path d="M13.3348 6.08509V3.19081C12.3049 3.4264 11.3013 3.76383 10.3388 4.19807V6.11059C10.3004 10.5731 10.0507 14.1878 8.98158 17.5028C8.13542 20.157 6.64964 22.5646 4.65397 24.5154C3.57918 21.938 3.33765 19.0911 3.96295 16.3707C4.58825 13.6503 6.04931 11.1915 8.14295 9.33636L8.20697 5.32645C5.83228 6.8249 3.87566 8.89581 2.51827 11.3474C1.16088 13.799 0.446611 16.552 0.441598 19.3516C0.429375 21.8894 1.00254 24.3962 2.11691 26.6786C3.23128 28.9611 4.85708 30.9582 6.869 32.516C10.6845 27.7348 13.2452 21.4107 13.3348 6.08509Z" fill="white"/>
<path d="M18.6813 0.207289C18.1372 0.162664 17.6442 0.143539 17.1833 0.143539C16.7224 0.143539 16.2358 0.143538 15.6853 0.207289V3.64982C15.6853 18.7459 15.1219 25.325 12.9453 35.4868C15.72 36.2072 18.6338 36.2072 21.4085 35.4868C19.2447 25.376 18.6813 18.8161 18.6813 3.64344V0.207289Z" fill="white"/>
</g>
<defs>
<clipPath id="clip0_679_24924">
<rect width="183.078" height="35.8852" fill="white" transform="translate(0.460938 0.143539)"/>
</clipPath>
</defs>
</svg>
