<svg width="66" height="70" viewBox="0 0 66 70" fill="none" xmlns="http://www.w3.org/2000/svg">
<path d="M65.211 37.5182C65.2112 32.0513 63.8252 26.6729 61.1815 21.8817C58.5379 17.0904 54.7223 13.0414 50.0883 10.1101L50.2007 17.9321C54.2941 21.5444 57.1509 26.3408 58.3712 31.65C59.5916 36.9592 59.1144 42.5155 57.0066 47.5413C53.1174 43.7353 50.2234 39.0388 48.5773 33.8621C46.4794 27.3956 46.0049 20.2949 45.9174 11.6397V7.90904C44.0473 7.06513 42.0981 6.407 40.0981 5.94421V11.6273C40.2979 41.4727 45.293 53.9083 52.7482 63.1231C56.6427 60.0883 59.7915 56.2095 61.9553 51.7814C64.1191 47.3534 65.2411 42.4925 65.236 37.5679V37.5679L65.211 37.5182Z" fill="white"/>
<path d="M25.1129 11.59V5.94421C23.104 6.40377 21.1461 7.06198 19.2686 7.90904V11.6397C19.1937 20.3446 18.7067 27.3956 16.6212 33.8621C14.9706 39.0396 12.0724 43.736 8.17947 47.5413C6.08292 42.5137 5.61175 36.9604 6.83151 31.6538C8.05127 26.3472 10.9013 21.551 14.9853 17.9321L15.1102 10.1101C10.478 13.0331 6.66125 17.0728 4.01343 21.855C1.36562 26.6373 -0.0276882 32.0075 -0.0374683 37.4685V37.4685C-0.0613117 42.419 1.05674 47.3089 3.2305 51.7612C5.40426 56.2134 8.57567 60.1091 12.5002 63.148V63.148C19.9429 53.8213 24.938 41.4852 25.1129 11.59Z" fill="white"/>
<path d="M35.5401 0.124354C34.4786 0.0373049 33.5171 0 32.618 0C31.7189 0 30.7698 -1.89938e-06 29.6958 0.124354V6.83958C29.6958 36.2871 28.5969 49.1206 24.3511 68.943C29.7635 70.3482 35.4474 70.3482 40.8599 68.943C36.639 49.2201 35.5401 36.4239 35.5401 6.82714V0.124354Z" fill="white"/>
</svg>
